<?xml version="1.0" encoding="utf-8"?>
<!-- Generator: Adobe Illustrator 23.0.3, SVG Export Plug-In . SVG Version: 6.00 Build 0)  -->
<svg version="1.1" id="Layer_1" xmlns="http://www.w3.org/2000/svg" xmlns:xlink="http://www.w3.org/1999/xlink" x="0px" y="0px"
	 viewBox="0 0 203 83" style="enable-background:new 0 0 203 83;" xml:space="preserve">
<style type="text/css">
	.st0{filter:url(#Adobe_OpacityMaskFilter);}
	.st1{fill-rule:evenodd;clip-rule:evenodd;fill:#FFFFFF;}
	.st2{mask:url(#mask-2_1_);fill-rule:evenodd;clip-rule:evenodd;fill:#FFFFFF;}
	.st3{filter:url(#Adobe_OpacityMaskFilter_1_);}
	.st4{mask:url(#mask-2_2_);fill-rule:evenodd;clip-rule:evenodd;fill:#E60000;}
	.st5{filter:url(#Adobe_OpacityMaskFilter_2_);}
	.st6{mask:url(#mask-2_3_);fill-rule:evenodd;clip-rule:evenodd;fill:#FFFFFF;}
	.st7{filter:url(#Adobe_OpacityMaskFilter_3_);}
	.st8{mask:url(#mask-2_4_);fill-rule:evenodd;clip-rule:evenodd;fill:#E60000;}
</style>
<defs>
	<filter id="Adobe_OpacityMaskFilter" filterUnits="userSpaceOnUse" x="91" y="8.8" width="111.2" height="67.4">
		<feColorMatrix  type="matrix" values="1 0 0 0 0  0 1 0 0 0  0 0 1 0 0  0 0 0 1 0"/>
	</filter>
</defs>
<mask maskUnits="userSpaceOnUse" x="91" y="8.8" width="111.2" height="67.4" id="mask-2_1_">
	<g class="st0">
		<rect id="path-1_1_" y="-1" class="st1" width="208" height="84"/>
	</g>
</mask>
<path id="Juwai" class="st2" d="M134.1,44c0-0.3-0.3-0.6-0.7-0.6h-21.1c-0.3,0-0.8,0.2-0.8,0.5v5.8c0,0.3,0.4,0.6,0.8,0.6h21.1
	c0.4,0,0.7-0.3,0.7-0.6V44z M101.9,28.8H117v-4.7h-15.1V28.8z M134.3,14.6c0-0.3-0.4-0.7-0.7-0.7h-31c-0.3,0-0.7,0.3-0.7,0.6v4.9
	l31.8-0.1c0.3,0,0.7-0.4,0.7-0.7V14.6z M125,33.4v5.3h12.5c1.3,0,2.5,0.4,3.3,1.2c0.8,0.7,1.3,1.8,1.3,3v7.4c0,1.5-0.4,2.7-1.3,3.4
	c-0.8,0.7-1.9,1-3.4,1h-28.9c-1.6,0-2.8-0.3-3.7-1c-1-0.8-1.4-2-1.4-3.8v-7.3c0-1.3,0.5-2.2,1.2-2.9c0.9-0.7,2-1,3.3-1h9v-5.3h-15
	V38c0,5.7-1,12.3-2.6,16.9H91c2.3-5.5,2.7-11.4,2.7-18.2V13.6c0-1.1,0.5-2.2,1.4-3c0.8-0.8,1.9-1.3,3-1.3h39.1c1.6,0,3,0.5,3.9,1.4
	c0.9,0.8,1.4,2.1,1.4,3.6v4.9c0,1.4-0.4,2.6-1.2,3.5c-0.8,0.9-2,1.5-3.6,1.5H125v4.7h17.1v4.6H125z M192,34.2
	c-2.4-7.4-2.4-5.9-3.6-13.7v34.7h-8V8.8h8v10.9h7.9c1.4,8.2,1.4,6.6,3.9,14.5H192z M168.6,20h-5.1c-0.9,3-1.9,6-3,9h2.2
	c0.8,2,1.9,4.1,2.9,5.9c1.8-4.3,3.3-9.5,3.7-14C169.3,20.5,169,20,168.6,20z M173,37.7c-2.7,6.3-6.6,12.1-11.4,17.4h-9.7
	c3.4-3.9,6.8-8.1,9.6-12.5c-2.4-3.3-4.5-6.9-6.1-10.5h-4.9c3.3-7.4,5.4-15.4,7.3-23.3h8.3c-0.3,2-0.9,4.4-1.4,6.2h8.4
	c1,0,2,0.4,2.8,1c0.8,0.7,1.4,1.7,1.3,2.7C177,25.5,175.5,31.8,173,37.7z M96.1,58.5h3.9v11c0,5-1.7,6.8-5.4,6.8H91v-3.1h2.7
	c1.6,0,2.4-1,2.4-3.7V58.5z M113.8,71.9c0,1.7,0,3,0.1,4.1h-3.4l-0.2-1.8h-0.1c-0.5,0.8-1.7,2.1-3.9,2.1c-2.5,0-4.4-1.6-4.4-5.5
	v-7.4h3.9v6.8c0,1.8,0.6,2.9,2,2.9c1.1,0,1.7-0.7,2-1.4c0.1-0.2,0.1-0.5,0.1-0.9v-7.5h3.9V71.9z M118.3,63.3l1,5.2
	c0.3,1.3,0.5,2.7,0.7,4.2h0.1c0.3-1.4,0.6-2.9,0.9-4.1l1.3-5.2h3.1l1.3,5c0.3,1.4,0.7,2.8,0.9,4.3h0.1c0.2-1.4,0.4-2.9,0.7-4.3
	l1.1-5h3.8l-3.9,12.6h-3.7l-1.2-4.4c-0.3-1.2-0.5-2.4-0.8-3.9h0c-0.2,1.6-0.5,2.8-0.8,3.9l-1.3,4.4H118l-3.7-12.6H118.3z M140.4,70
	c-2.1,0-3.7,0.5-3.7,2c0,1,0.7,1.5,1.5,1.5c1,0,1.8-0.6,2-1.5c0.1-0.2,0.1-0.4,0.1-0.7V70z M144.2,72.9c0,1.2,0,2.4,0.2,3.1h-3.5
	l-0.2-1.3h-0.1c-0.8,1-2.1,1.6-3.6,1.6c-2.6,0-4.1-1.9-4.1-3.9c0-3.3,2.9-4.9,7.4-4.8v-0.2c0-0.7-0.4-1.6-2.3-1.6
	c-1.3,0-2.7,0.4-3.5,1l-0.7-2.5c0.9-0.5,2.6-1.1,4.9-1.1c4.2,0,5.5,2.5,5.5,5.4V72.9z M146,75.9V63.3h3.9v12.6H146z M150.1,59.8
	c0,1.1-0.8,2-2.1,2c-1.2,0-2.1-0.9-2-2c0-1.1,0.8-2,2.1-2C149.3,57.8,150.1,58.6,150.1,59.8z M201.5,13.5c0-0.2,0-0.4,0-0.7v-2.3
	c0-0.1,0-0.5,0-0.8c-0.1,0.2-0.2,0.5-0.3,0.7l-1.1,2.4c-0.1,0.2-0.2,0.5-0.2,0.7h-0.5c0-0.1-0.1-0.4-0.2-0.7l-1.1-2.4
	c-0.1-0.2-0.2-0.4-0.3-0.8c0,0.3,0,0.7,0,0.8v2.3c0,0.3,0,0.5,0,0.7h-0.7c0-0.2,0-0.4,0-0.7V9.7c0-0.3,0-0.5,0-0.7h0.9
	c0,0.2,0.1,0.3,0.2,0.6l1.3,3l1.3-3c0.1-0.2,0.2-0.4,0.2-0.6h0.9c0,0.2,0,0.4,0,0.7v3.1c0,0.3,0,0.5,0,0.7H201.5z M195.5,12.8
	c0,0.3,0,0.5,0,0.7h-0.7c0-0.2,0-0.4,0-0.7V9.5H194c-0.3,0-0.5,0-0.7,0V9c0.2,0,0.4,0,0.7,0h2.3c0.4,0,0.5,0,0.7,0v0.6
	c-0.2,0-0.4,0-0.7,0h-0.8V12.8z"/>
<defs>
	<filter id="Adobe_OpacityMaskFilter_1_" filterUnits="userSpaceOnUse" x="151.5" y="63" width="48.4" height="13.2">
		<feColorMatrix  type="matrix" values="1 0 0 0 0  0 1 0 0 0  0 0 1 0 0  0 0 0 1 0"/>
	</filter>
</defs>
<mask maskUnits="userSpaceOnUse" x="151.5" y="63" width="48.4" height="13.2" id="mask-2_2_">
	<g class="st3">
		<rect id="path-1_2_" y="-1" class="st1" width="208" height="84"/>
	</g>
</mask>
<path class="st4" d="M153.8,76.2c-1.3,0-2.3-1-2.3-2.4c0-1.4,1-2.4,2.3-2.4c1.4,0,2.3,1,2.3,2.4C156.2,75.2,155.2,76.2,153.8,76.2
	L153.8,76.2z M166.7,75.6c-0.7,0.3-2,0.6-3.5,0.6c-4.1,0-6.7-2.5-6.7-6.5c0-3.7,2.5-6.7,7.2-6.7c1,0,2.2,0.2,3,0.5l-0.6,2.9
	c-0.5-0.2-1.2-0.4-2.2-0.4c-2.1,0-3.4,1.5-3.4,3.5c0,2.3,1.5,3.5,3.5,3.5c0.9,0,1.7-0.2,2.2-0.4L166.7,75.6z M170.6,69.6
	c0,2.2,0.9,3.8,2.6,3.8c1.5,0,2.5-1.5,2.5-3.8c0-1.9-0.7-3.8-2.5-3.8C171.3,65.8,170.6,67.7,170.6,69.6z M179.7,69.5
	c0,4.6-3.3,6.7-6.6,6.7c-3.7,0-6.5-2.4-6.5-6.5c0-4.1,2.7-6.7,6.7-6.7C177.2,63,179.7,65.7,179.7,69.5z M180.9,67.3
	c0-1.6-0.1-2.9-0.1-4h3.3l0.2,1.7h0.1c0.5-0.8,1.6-2,3.8-2c1.6,0,2.9,0.8,3.5,2.1h0.1c0.5-0.7,1-1.2,1.6-1.5
	c0.7-0.4,1.5-0.6,2.4-0.6c2.4,0,4.3,1.7,4.3,5.5v7.4h-3.8v-6.9c0-1.8-0.6-2.9-1.9-2.9c-0.9,0-1.5,0.6-1.8,1.4
	c-0.1,0.3-0.2,0.7-0.2,1v7.4h-3.8v-7.1c0-1.6-0.6-2.7-1.8-2.7c-1,0-1.6,0.8-1.8,1.4c-0.1,0.3-0.2,0.7-0.2,1v7.4h-3.8V67.3z"/>
<defs>
	<filter id="Adobe_OpacityMaskFilter_2_" filterUnits="userSpaceOnUse" x="0" y="0.4" width="82" height="82.2">
		<feColorMatrix  type="matrix" values="1 0 0 0 0  0 1 0 0 0  0 0 1 0 0  0 0 0 1 0"/>
	</filter>
</defs>
<mask maskUnits="userSpaceOnUse" x="0" y="0.4" width="82" height="82.2" id="mask-2_3_">
	<g class="st5">
		<rect id="path-1_3_" y="-1" class="st1" width="208" height="84"/>
	</g>
</mask>
<path id="ChopBG" class="st6" d="M41,0.4C18.4,0.4,0,18.8,0,41.5c0,22.7,18.4,41.1,41,41.1c22.6,0,41-18.4,41-41.1
	C82,18.8,63.6,0.4,41,0.4"/>
<defs>
	<filter id="Adobe_OpacityMaskFilter_3_" filterUnits="userSpaceOnUse" x="0" y="0.4" width="82" height="82.2">
		<feColorMatrix  type="matrix" values="1 0 0 0 0  0 1 0 0 0  0 0 1 0 0  0 0 0 1 0"/>
	</filter>
</defs>
<mask maskUnits="userSpaceOnUse" x="0" y="0.4" width="82" height="82.2" id="mask-2_4_">
	<g class="st7">
		<rect id="path-1_4_" y="-1" class="st1" width="208" height="84"/>
	</g>
</mask>
<path id="Chop" class="st8" d="M41,75.7c-18.9,0-34.2-15.3-34.2-34.3C6.8,22.6,22.1,7.2,41,7.2c18.9,0,34.2,15.3,34.2,34.3
	C75.2,60.4,59.9,75.7,41,75.7 M41,0.4c22.6,0,41,18.4,41,41.1c0,22.7-18.3,41.1-41,41.1c-22.6,0-41-18.4-41-41.1
	C0,18.8,18.4,0.4,41,0.4z M37.8,44.7l-19.8,0c0.4,3,1.3,5.7,2.7,8.2l0-0.1h17.1V44.7z M41,64.8c6.2,0,11.6-2.2,16.1-6.5l-32.2,0
	C29.4,62.7,34.8,64.8,41,64.8z M37.8,30l-17,0c-1.5,2.5-2.4,5.3-2.8,8.3h19.8V30z M41,18.2c-6.2,0-11.5,2.1-15.9,6.3h31.9
	C52.5,20.3,47.2,18.2,41,18.2z M61.4,52.9C61.4,52.9,61.4,52.9,61.4,52.9l6.5,0c-1.4,3.4-3.5,6.5-6.3,9.3C55.9,67.8,49,70.6,41,70.6
	c-8,0-14.9-2.8-20.6-8.5c-5.7-5.7-8.5-12.6-8.5-20.6c0-8,2.8-14.9,8.5-20.6c5.7-5.7,12.5-8.5,20.6-8.5c8,0,14.9,2.8,20.6,8.5
	c2.8,2.8,4.8,5.8,6.3,9.1h-6.5c0,0,0,0,0,0l-17,0l0,8.3h24.9L69,44.7l-24.8,0l0,8.1H61.4z M41,8.5c-18.2,0-32.9,14.8-32.9,33
	s14.7,33,32.9,33c18.2,0,32.9-14.8,32.9-33S59.2,8.5,41,8.5z"/>
</svg>
